<svg xmlns="http://www.w3.org/2000/svg" xmlns:xlink="http://www.w3.org/1999/xlink" version="1.1" x="0px" y="0px" viewBox="0 0 100 125" style="enable-background:new 0 0 100 100;" xml:space="preserve"><g><path d="M50,29.0880241c-5.097435,0-10.0356407,0.9925327-14.6061821,2.8918896l2.8428268,2.8427525   C41.9494247,33.4625435,45.9195557,32.7640839,50,32.7640839c9.2024117,0,17.8411331,3.5902748,24.3600159,10.0969658   c0.3553238,0.3553276,0.8332291,0.5390854,1.2988739,0.5390854c0.4656372,0,0.9435425-0.1837578,1.2988663-0.5390854   c0.7229919-0.7229881,0.7229919-1.8870888,0-2.5978165C69.7526779,33.0582314,60.1826782,29.0880241,50,29.0880241z"/><path d="M61.5918617,58.1779594c0.4778328-0.7107277,0.4043121-1.6788025-0.2328186-2.315937   c-1.6787262-1.6787262-3.6637917-2.9531403-5.8326912-3.7495728L61.5918617,58.1779594z"/><path d="M67.8533936,51.2056999c0.4656448,0,0.9435501-0.1838341,1.2988739-0.5391579   c0.7229156-0.7107277,0.7229156-1.8748283,0-2.597744C64.0425644,42.9345703,57.2418022,40.1161995,50,40.1161995   c-1.9973297,0-3.9455986,0.2083626-5.8449554,0.624939l3.1982269,3.1981544   C48.2232246,43.8413162,49.1055183,43.7922554,50,43.7922554c6.2492676,0,12.1310196,2.4385147,16.5545273,6.8742867   C66.9098511,51.0218658,67.3877563,51.2056999,67.8533936,51.2056999z"/><path d="M44.9994926,67.2204666c0,2.7617569,2.2387505,5.0005798,5.0005074,5.0005798s5.0005074-2.2388229,5.0005074-5.0005798   S52.7617569,62.2199631,50,62.2199631S44.9994926,64.4587097,44.9994926,67.2204666z"/><path d="M23.042244,42.8610497c0.72299,0.7229156,1.8748245,0.7229156,2.5977402,0   c2.2424164-2.2301483,4.7298431-4.1172409,7.4133682-5.6366653l5.4405708,5.440567   c-2.8060341,1.3234024-5.39151,3.1369019-7.6461906,5.4038467c-0.7229156,0.7229156-0.7229156,1.8870163,0,2.597744   c0.7229919,0.7229156,1.8870163,0.7106476,2.597744,0c2.2791367-2.279213,4.9382057-4.0437241,7.8545494-5.1955605   l5.9183998,5.9184761c-3.2348747,0.5514221-6.2125473,2.0953789-8.5774689,4.4725647   c-0.7229156,0.7229195-0.7229156,1.8870163,0,2.597744c0.7229919,0.7229156,1.8870926,0.7229156,2.597744,0   C43.5791626,56.1071091,46.6915321,54.8204308,50,54.8204308c0.2205544,0,0.4411087,0,0.6616631,0.0122643l13.8709984,13.8710022   c0.3554001,0.3553238,0.8332367,0.5391541,1.2988739,0.5391541s0.9435425-0.1838303,1.2988663-0.5391541   c0.2328262-0.2328186,0.392128-0.5023651,0.4533768-0.7965088c0.1960983-0.6126785,0.0367966-1.3233261-0.4533768-1.8012314   l-7.1070251-7.1070328l-7.6951752-7.6952515l-7.0335884-7.0335121l-3.0388489-3.0388489l-5.7223778-5.7223778l-2.7938385-2.7938385   l-4.3989735-4.3990479c-0.5024376-0.5023632-1.2008972-0.6493988-1.8135738-0.4533749   c-0.2818069,0.0735188-0.5513477,0.2205544-0.7841682,0.4533749c-0.7229919,0.7107239-0.7229919,1.8870907,0,2.5978165   l3.6147308,3.6147308c-2.6344643,1.5807495-5.0851688,3.5045624-7.3153191,5.7346382   C22.319252,40.9739609,22.319252,42.1380615,23.042244,42.8610497z"/></g><text x="0" y="115" fill="#000000" font-size="5px" font-weight="bold" font-family="'Helvetica Neue', Helvetica, Arial-Unicode, Arial, Sans-serif">Created by Mahesh Keshvala</text><text x="0" y="120" fill="#000000" font-size="5px" font-weight="bold" font-family="'Helvetica Neue', Helvetica, Arial-Unicode, Arial, Sans-serif">from the Noun Project</text></svg>